# xmcd
#
# Track frame offsets:
#	150
#	12859
#	27133
#	44783
#	62486
#	80407
#	94762
#	109469
#	124743
#	140638
#
# Disc length: 2149 seconds
#
# Revision: 1
# Processed by: cddbd v1.5.2PL0 Copyright (c) Steve Scherf et al.
# Submitted via: audiograbber 1.83.01
#
DISCID=8608630a
DTITLE=Bluesbolhák - Bluesbolhák
DYEAR=2003
DGENRE=Blues
TTITLE0=Cadillac Blues
TTITLE1=Sodor az élet
TTITLE2=Ó a szabad életem
TTITLE3=Én a blues vagyok
TTITLE4=Blues Dr.
TTITLE5=Nem tüntem el végleg
TTITLE6=Ma már...
TTITLE7=Engem csak a blues
TTITLE8=Összedõlt a házam
TTITLE9=Öreg vagy
EXTD=
EXTT0=
EXTT1=
EXTT2=
EXTT3=
EXTT4=
EXTT5=
EXTT6=
EXTT7=
EXTT8=
EXTT9=
PLAYORDER=
